<svg width="158" height="17" viewBox="0 0 158 17" fill="none" xmlns="http://www.w3.org/2000/svg">
<path d="M2.66675 7L8.00008 12.3333L13.3334 7" stroke="white" stroke-linecap="round" stroke-linejoin="round"/>
<path d="M70.6667 7L76.0001 12.3333L81.3334 7" stroke="white" stroke-linecap="round" stroke-linejoin="round"/>
<path d="M150 2C150.494 2 150.978 2.14662 151.389 2.42133C151.8 2.69603 152.12 3.08648 152.31 3.54329C152.499 4.00011 152.548 4.50277 152.452 4.98773C152.356 5.47268 152.117 5.91814 151.768 6.26777C151.418 6.6174 150.973 6.8555 150.488 6.95196C150.003 7.04843 149.5 6.99892 149.043 6.8097C148.586 6.62048 148.196 6.30005 147.921 5.88893C147.647 5.4778 147.5 4.99445 147.5 4.5C147.5 3.83696 147.763 3.20107 148.232 2.73223C148.701 2.26339 149.337 2 150 2ZM150 1C149.308 1 148.631 1.20527 148.056 1.58986C147.48 1.97444 147.031 2.52107 146.766 3.16061C146.502 3.80015 146.432 4.50388 146.567 5.18282C146.702 5.86175 147.036 6.48539 147.525 6.97487C148.015 7.46436 148.638 7.7977 149.317 7.93275C149.996 8.0678 150.7 7.99848 151.339 7.73358C151.979 7.46867 152.526 7.02007 152.91 6.4445C153.295 5.86892 153.5 5.19223 153.5 4.5C153.5 3.57174 153.131 2.6815 152.475 2.02513C151.818 1.36875 150.928 1 150 1Z" fill="white"/>
<path d="M155 15H154V12.5C154 12.1717 153.935 11.8466 153.81 11.5433C153.684 11.24 153.5 10.9644 153.268 10.7322C153.036 10.5001 152.76 10.3159 152.457 10.1903C152.153 10.0647 151.828 10 151.5 10H148.5C147.837 10 147.201 10.2634 146.732 10.7322C146.263 11.2011 146 11.837 146 12.5V15H145V12.5C145 11.5717 145.369 10.6815 146.025 10.0251C146.682 9.36875 147.572 9 148.5 9H151.5C152.428 9 153.318 9.36875 153.975 10.0251C154.631 10.6815 155 11.5717 155 12.5V15Z" fill="white"/>
</svg>
